<?xml version="1.0" standalone="no"?>
<!DOCTYPE svg PUBLIC "-//W3C//DTD SVG 20010904//EN"
 "http://www.w3.org/TR/2001/REC-SVG-20010904/DTD/svg10.dtd">
<svg version="1.0" xmlns="http://www.w3.org/2000/svg"
 width="40.000000pt" height="40.000000pt" viewBox="0 0 40.000000 40.000000"
 preserveAspectRatio="xMidYMid meet">

<g transform="translate(0.000000,40.000000) scale(0.100000,-0.100000)"
fill="#000000" stroke="none">
<path d="M32 364 c-13 -9 -21 -22 -18 -30 3 -7 1 -16 -4 -19 -14 -9 -12 -59 2
-73 7 -7 20 -12 30 -12 13 0 18 -8 18 -30 0 -18 11 -42 29 -62 29 -33 29 -33
10 -57 -10 -13 -19 -32 -19 -42 0 -18 9 -19 120 -19 108 0 120 2 120 18 0 9
-5 24 -11 32 -8 12 -9 9 -5 -12 5 -23 3 -28 -13 -28 -11 0 -31 11 -45 25 -32
32 -60 32 -93 -1 -19 -20 -30 -24 -45 -17 -19 8 -19 9 0 34 19 23 25 25 102
23 44 -1 79 1 76 4 -3 3 8 20 24 39 19 21 30 45 30 63 0 22 5 30 18 30 10 0
23 5 30 12 13 13 16 60 5 72 -4 4 -8 15 -8 24 0 9 -12 23 -27 31 -24 14 -32
14 -60 2 -54 -23 -135 -25 -179 -5 -22 9 -42 14 -46 11 -3 -4 8 -12 25 -18 35
-12 45 -35 12 -26 -11 3 -30 -3 -42 -13 -20 -16 -21 -21 -10 -44 10 -23 9 -28
-5 -33 -27 -10 -58 47 -33 62 6 3 10 17 10 31 0 15 6 24 15 24 8 0 15 5 15 10
0 13 -2 13 -28 -6z m329 -4 c5 0 9 -11 9 -24 0 -14 5 -28 10 -31 25 -15 -6
-72 -33 -62 -14 5 -15 10 -5 33 11 23 10 28 -10 44 -12 10 -31 16 -42 13 -11
-3 -20 -1 -20 5 0 13 50 32 68 26 8 -2 18 -4 23 -4z m-100 -36 c39 -20 73 -92
64 -134 -4 -16 -20 -41 -37 -55 -43 -36 -133 -36 -176 0 -40 33 -47 71 -26
125 29 72 106 100 175 64z m-171 -25 c-7 -11 -14 -18 -17 -15 -8 8 5 36 17 36
7 0 7 -6 0 -21z m237 6 c9 -25 -4 -29 -17 -6 -7 15 -7 21 0 21 6 0 13 -7 17
-15z m-89 -262 c2 -9 -9 -13 -37 -13 -39 0 -50 8 -34 24 11 11 66 2 71 -11z"/>
<path d="M172 258 c-7 -7 -22 -13 -34 -13 -12 0 -23 -7 -26 -15 -3 -12 -2 -12
8 -3 14 13 14 12 55 -37 11 -13 14 -20 8 -16 -8 4 -13 1 -13 -8 0 -11 9 -16
30 -16 21 0 30 5 30 16 0 9 -5 12 -12 8 -7 -4 -4 3 7 16 41 49 41 50 55 37 10
-9 11 -9 8 3 -3 8 -15 15 -28 15 -13 0 -25 6 -28 13 -5 16 -44 16 -60 0z"/>
</g>
</svg>
